PathFileType	4	(X/Y/Z)	Patient4_TMGait_0pt3_01_right_04.trc.trc
DataRate	CameraRate	NumFrames	NumMarkers	Units	OrigDataRate	OrigDataStartFrame	OrigNumFrames
52.830188679245	52.830188679245	6	33	mm	52.830188679245	124	       141
Frame#	Time	Sacral			L.Shoulder			Chest			R.Shoulder			Neck			R.ASIS			L.ASIS			R.Thigh.Superior			R.Thigh.Lateral			R.Thigh.Inferior			R.Patella			L.Thigh.Superior			L.Thigh.Lateral			L.Thigh.Inferior			L.Patella			L.Shank.Superior			L.Shank.Lateral			L.Shank.Inferior			R.Shank.Superior			R.Shank.Lateral			R.Shank.Inferior			R.Heel			R.Midfoot.Superior			R.Midfoot.Lateral			R.Toe			L.Heel			L.Midfoot.Lateral			L.Midfoot.Superior			L.Toe			L.Elbow			L.Wrist			R.Elbow			R.Wrist			
		X1	Y1	Z1	X2	Y2	Z2	X3	Y3	Z3	X4	Y4	Z4	X5	Y5	Z5	X6	Y6	Z6	X7	Y7	Z7	X8	Y8	Z8	X9	Y9	Z9	X10	Y10	Z10	X11	Y11	Z11	X12	Y12	Z12	X13	Y13	Z13	X14	Y14	Z14	X15	Y15	Z15	X16	Y16	Z16	X17	Y17	Z17	X18	Y18	Z18	X19	Y19	Z19	X20	Y20	Z20	X21	Y21	Z21	X22	Y22	Z22	X23	Y23	Z23	X24	Y24	Z24	X25	Y25	Z25	X26	Y26	Z26	X27	Y27	Z27	X28	Y28	Z28	X29	Y29	Z29	X30	Y30	Z30	X31	Y31	Z31	X32	Y32	Z32	X33	Y33	Z33	

124	8.218214285714	816.686934430269	995.765312650852	444.311923059551	1052.661482023509	1425.510306728778	317.514629872365	1094.636978354209	1357.662941844425	502.557744180442	961.437609656140	1433.972858443197	640.232905073851	989.244561447253	1487.187217372498	460.159363706000	1012.419181688943	938.805449505956	616.825276790298	1064.102254988300	952.101836538501	346.177435604681	1086.212420822434	754.820760420092	600.558642178946	1018.531521331061	634.159870572242	654.319801147457	1115.808534767039	594.822235479729	587.919375248947	1136.271924903273	510.574380270983	601.559876999602	1068.361452938601	725.962516229727	379.606909313816	970.185844513700	622.252825832315	302.555478638802	1024.335832642037	534.388383153880	378.807228602040	1009.261817145921	465.278703781811	386.438710699600	971.553091555487	398.364043685720	374.104279644137	868.026637701836	299.534668187853	316.447927958561	891.553797608324	182.669853285432	391.207023231011	1117.275994108052	419.977612685749	610.220580223760	1052.422666306451	309.145454507727	668.351713366440	1120.450719127632	219.304000538163	621.584221986077	1017.698805181174	40.871905153277	586.289337074269	1180.740232676701	106.896183061524	638.200440037591	1095.932901453414	36.055823175600	665.919651124603	1300.518356841481	64.644929018129	673.684310624363	742.711368941227	37.967462571368	426.601641401144	817.483636483450	35.344943742131	347.035147522962	902.035512528774	94.923254930333	376.387604464030	1029.796528501348	40.936318674207	347.333865861838	1187.465320191458	1117.180739362769	183.721051062209	1438.004462897587	1119.585649719343	246.783181585112	777.825989584862	1139.404018496385	714.302163255164	728.018032832630	884.857518840300	751.383299331694	
125	8.237142857143	818.623900167058	994.725720453936	448.955017531974	1052.678082451041	1425.194957478781	322.943101815257	1095.223180097590	1357.263518124943	507.818818492360	961.890924087072	1432.845334048526	645.831347714426	989.276741245249	1486.488413427726	465.802151612882	1014.565573524604	937.843537303223	621.295101576434	1066.083569771823	951.584377679514	350.758833805557	1088.286782867563	753.305211383669	604.309278255073	1019.384864945509	632.708526375078	657.125901397957	1116.906439054046	593.465152289441	591.012428206143	1135.966174983283	508.862338956525	603.769867119808	1068.835827851281	724.653558415754	382.908281413534	969.179514289732	622.045663580705	305.637011801122	1022.697462723741	533.328396359102	381.230785835416	1007.062921245958	464.058045098933	388.536511528049	968.551290118663	397.677586669594	375.872590364750	863.809377579215	300.161773630083	317.688087186786	886.675951075122	182.511568974501	391.712208582260	1117.060058943713	418.065286284816	612.194224225695	1051.909537494226	307.450723696074	670.028647297848	1118.990870988346	217.599801781427	622.347479018095	1014.521075490257	41.105774749162	586.589585387576	1178.198473018597	105.111402769584	637.994187940792	1092.579520258065	35.893427763021	666.366039190854	1297.551660528466	61.700344139893	673.637798881442	736.911639808323	38.101857610726	426.434609256559	811.793542140778	35.275965729968	346.990042147522	896.434601637895	94.939903274099	376.312625741153	1024.175032594940	40.760133975868	347.269968247232	1188.732812455344	1117.501487782596	188.937066411883	1439.120580897329	1125.528678494924	251.574327529217	781.099476855138	1136.390196136394	720.404389048678	733.695051572047	881.542492832917	758.354802119362	
126	8.256071428571	820.752220553976	993.968626780450	453.958252749212	1052.703679072140	1425.159961689478	328.518830854520	1095.931033876563	1357.200811621061	513.232080762716	962.475006977280	1432.048912274804	651.601017078712	989.304468131907	1486.063112301113	471.604573096902	1017.086166643133	937.205263190572	626.002648601773	1068.158515600209	951.381620908204	355.570627369676	1090.950280535264	752.312229995589	607.839318386328	1021.220208800887	631.716871645077	660.003453862496	1118.731245693930	592.483576491929	593.900117058382	1136.497420711514	507.256532359245	605.960163565244	1069.497950801082	723.546361901722	386.316293156037	968.357364403897	621.997886072200	308.936604928261	1021.459950272850	532.420543903725	383.782579853786	1005.370406399483	462.878914529294	390.676376719707	965.873977085110	397.137086925747	377.703756429917	859.761444805608	301.108490973633	319.043185205243	881.957376243445	182.567058312626	392.203634215009	1117.132925026937	416.262697328026	614.044744419311	1051.156191370276	306.183184818940	671.618354298046	1116.664785924392	215.998783645440	622.833288595688	1009.559560784703	41.584477291076	586.536821625202	1174.008132121686	103.466875109629	637.522157878875	1087.408328241158	35.932835041656	666.501940260886	1292.858991154056	58.760459521059	673.384765169910	731.137709773014	38.608228467330	426.222679450976	806.140473674911	35.383837640592	346.930848805071	890.971775361000	95.032090807048	376.177778394944	1018.589801101803	40.530723790269	347.182328302222	1189.525093510386	1117.878342972115	194.196271506346	1439.778020369988	1130.612705983228	256.138826154659	784.710682738989	1133.592693216256	726.833950936661	740.148924801634	878.413218148324	765.824836676304	
127	8.275000000000	822.964761049154	993.509648486700	459.303658793042	1052.738237060193	1425.403823480024	334.189601404565	1096.757703323471	1357.449849626111	518.733707427926	963.228325828626	1431.596244633297	657.490472934208	989.361832769166	1485.922323250534	477.509666573523	1019.869091995860	936.893124791292	630.901411722542	1070.200441005254	951.491545542396	360.545938215162	1093.959438413460	751.772278970891	611.244990615956	1023.718097786521	631.156139400008	663.032345215146	1120.964072015037	591.822582278626	596.676391169247	1137.582356539757	505.817145393205	608.199612878198	1070.344993732040	722.712346299399	389.818774438497	967.845588344438	622.096661702017	312.428878400654	1020.827726578677	531.691718548562	386.442928163442	1004.416513279086	461.738267132565	392.817226257410	963.725984044247	396.736662930364	379.585291614599	856.063380527660	302.422313106736	320.530329897140	877.518305812227	182.892574300434	392.683244146024	1117.356762011232	414.638197128860	615.859119140578	1050.215316885434	305.276422061326	673.212946917783	1113.746097481206	214.547751468748	623.188183082079	1003.474461640159	42.136034707963	586.308726319287	1168.732192198180	102.038882587167	636.948890601419	1081.120606598335	36.070957475734	666.467107693912	1287.082390149897	56.074702566397	673.024420419233	725.441929733619	39.675733948342	425.981870645756	800.553744864287	35.791867678954	346.865491405609	885.718065641766	95.235261506376	375.988115571047	1013.041315905723	40.240549629287	347.075725702506	1189.885923923234	1118.332429913112	199.465395562631	1440.048137441407	1134.864373528912	260.508859591019	788.582009305773	1131.125237095965	733.551142248382	747.207087296783	875.610644740306	773.740821312952	
128	8.293928571429	825.154917574328	993.333042212813	464.967396565051	1052.742411816427	1425.904654978913	339.897892743882	1097.683898203770	1357.967149219208	524.248625904545	964.180874845989	1431.466165061485	663.453264782573	989.466731270973	1486.055079843049	483.464007018557	1022.799042039301	936.880227678984	635.931065831349	1072.091714280642	951.887824711992	365.610415318020	1097.049260905780	751.561926362049	614.651099572110	1026.484787028853	630.946407035972	666.260755067381	1123.257192363833	591.393893213012	599.451448783935	1138.871330424515	504.562708771242	610.547618236236	1071.418788713583	722.213259453485	393.409927797405	967.826473396378	622.310069808894	316.091752832077	1021.056176665588	531.159221630080	389.202460130855	1004.480671953636	460.628247726629	394.934667365431	962.360724204451	396.456722004627	381.517413678150	852.945771728729	304.146712506685	322.171961265835	873.509223667781	183.547357096665	393.162179802884	1117.530242181810	413.222763358176	617.714879707572	1049.050463735903	304.644984609027	674.861657254237	1110.420497027593	213.274296859137	623.537089442908	996.811085865203	42.642846692224	586.042597537988	1162.833276157739	100.871031932998	636.404464043016	1074.286759524345	36.232270139501	666.372343182987	1280.739381712394	53.809397334226	672.644598750027	719.898724764297	41.518535099001	425.739517028529	795.074528101879	36.651052023854	346.808050292843	880.757051770682	95.595467754819	375.756688918873	1007.526589589467	39.888310104926	346.959030063263	1189.825256523263	1118.857026323428	204.722833168747	1439.959116779463	1138.285154419305	264.714861221137	792.668948101193	1129.043103425817	740.540617897051	754.745960808472	873.214356332324	782.060599633420	
129	8.312857142857	827.224839799557	993.403579760120	470.915251656490	1052.649054650309	1426.627883582072	345.585991916218	1098.675484324784	1358.700107255596	529.699106947409	965.348058569462	1431.613347414299	669.448632392205	989.618854430936	1486.434550820923	489.421228583472	1025.763957844621	937.122659172805	641.025663450128	1073.734308755271	952.527035717993	370.692859638382	1099.964379493089	751.532513614969	618.183351604113	1029.110556762832	630.980407682015	669.698812491852	1125.275441238676	591.097931461780	602.325278008502	1139.998739151144	503.482204836209	613.038926514593	1072.795232671116	722.097254679254	397.093172379564	968.512733646816	622.596253323301	319.908461164838	1022.415080861080	530.834975778083	392.064837348067	1005.849340824843	459.545395560165	397.026529667003	962.048036423136	396.274439422764	383.513041682584	850.664758926688	306.322826753087	323.993100887259	870.097526935018	184.595043292982	393.659952622819	1117.426505614547	412.018529111715	619.664834391576	1047.568832191507	304.199262685367	676.574577767688	1106.790721103550	212.187216471214	623.968388150421	989.966905752260	43.038280119043	585.829083858653	1156.649386174442	99.972770970833	635.974933329983	1067.315162457050	36.368385522495	666.293568282704	1274.199180413655	52.042821250836	672.312412169330	714.604815680435	44.361539715321	425.532884925427	789.757507898355	38.133301079940	346.779061698347	876.180864623117	96.170104233870	375.504578179489	1002.040339000784	39.478909489234	346.845118038945	1189.305805086680	1119.415797663177	209.957185697078	1439.483995412124	1140.843930983616	268.779742151440	796.961497312759	1127.348005729461	747.808243692994	762.704037207069	871.246027949107	790.753346994270	
